<?xml version="1.0" encoding="utf-8"?>
<!-- Generator: Adobe Illustrator 23.0.1, SVG Export Plug-In . SVG Version: 6.00 Build 0)  -->
<svg version="1.1" id="Layer_1" xmlns="http://www.w3.org/2000/svg" xmlns:xlink="http://www.w3.org/1999/xlink" x="0px" y="0px"
	 viewBox="0 0 64 64" style="enable-background:new 0 0 64 64;" xml:space="preserve">
<style type="text/css">
	.st0{fill-rule:evenodd;clip-rule:evenodd;fill:#0F4773;}
	.st1{fill-rule:evenodd;clip-rule:evenodd;fill:#1A66A2;}
	.st2{fill-rule:evenodd;clip-rule:evenodd;fill:#42A5F5;}
	.st3{fill-rule:evenodd;clip-rule:evenodd;fill:#E1F5FE;}
	.st4{fill:#1876D2;}
</style>
<g id="Clone-Copy-2">
	<g id="Group-4" transform="translate(4.000000, 2.000000)">
		<g id="Group-2">
			<path id="Rectangle-7-Copy" class="st0" d="M5,7.6h26.4l5.6,5.7l6.5,6.4v38.2H5V7.6z"/>
			<path id="Rectangle-7-Copy-2" class="st1" d="M8.8,3.8h26.4l5.6,5.7l6.5,6.4v38.2H8.8V3.8z"/>
			<g id="Group" transform="translate(12.312896, 0.000000)">
				<polygon id="Rectangle-7" class="st2" points="0,0 26.4,0 31.9,5.7 38.5,12.1 38.5,50.3 0,50.3 				"/>
				<polygon id="Rectangle" class="st3" points="25.4,1.5 36.9,12.9 25.4,12.9 				"/>
				<polygon id="Line-5" class="st4" points="3.8,21.2 3.8,18.5 33.1,18.5 33.1,21.2 				"/>
				<polygon id="Line-5-Copy" class="st4" points="3.8,27.6 3.8,25 25.2,25 25.2,27.6 				"/>
				<polygon id="Line-5-Copy-2" class="st4" points="3.8,34 3.8,31.4 31.7,31.4 31.7,34 				"/>
				<polygon id="Line-5-Copy-3" class="st4" points="3.8,40.5 3.8,37.8 22.1,37.8 22.1,40.5 				"/>
			</g>
		</g>
		<path id="Shape" class="st4" d="M47.5,59c-0.2,0-0.4,0.1-0.5-0.1c-0.1-0.1,0-0.2,0-0.4l1-6c0.1-0.1,0.3-0.1,0.4,0l1.3,1.4
			c1.1-0.5,2.6-1.5,3.3-3.4c1.1-2.9-1-5.5-1-5.5l0.3,0.2c0,0,3.6,2.2,3.6,6.1c0,3.3-2.1,5.1-3.2,5.8l1.3,1.4c0.1,0.1,0.1,0.3,0,0.4
			L47.5,59z"/>
	</g>
</g>
</svg>
