<?xml version="1.0" encoding="UTF-8"?>
<svg width="16px" height="16px" viewBox="0 0 16 16" version="1.1" xmlns="http://www.w3.org/2000/svg" xmlns:xlink="http://www.w3.org/1999/xlink">
    <!-- Generator: Sketch 51.3 (57544) - http://www.bohemiancoding.com/sketch -->
    <title>noun_tick_684581</title>
    <desc>Created with Sketch.</desc>
    <defs></defs>
    <g id="Page-1" stroke="none" stroke-width="1" fill="none" fill-rule="evenodd">
        <g id="5" transform="translate(-1224.000000, -271.000000)" fill="#75C484" fill-rule="nonzero">
            <g id="noun_tick_684581" transform="translate(1224.000000, 271.000000)">
                <path d="M8,0.109090909 C3.63636364,0.109090909 0.109090909,3.63636364 0.109090909,8 C0.109090909,12.3636364 3.63636364,15.8909091 8,15.8909091 C12.3636364,15.8909091 15.8909091,12.3636364 15.8909091,8 C15.8909091,3.63636364 12.3636364,0.109090909 8,0.109090909 Z M12.6,5.83636364 L6.89090909,11.5636364 C6.74545455,11.7090909 6.56363636,11.7818182 6.38181818,11.7818182 C6.2,11.7818182 6,11.7090909 5.87272727,11.5636364 L3.03636364,8.72727273 C2.74545455,8.43636364 2.74545455,7.98181818 3.03636364,7.69090909 C3.32727273,7.4 3.78181818,7.4 4.07272727,7.69090909 L6.36363636,10.0181818 L11.5636364,4.81818182 C11.8545455,4.52727273 12.3090909,4.52727273 12.6,4.81818182 C12.8909091,5.09090909 12.8909091,5.54545455 12.6,5.83636364 Z" id="Shape"></path>
            </g>
        </g>
    </g>
</svg>